<?xml version="1.0" standalone="no"?><svg xmlns="http://www.w3.org/2000/svg" viewBox="0 0 1440 320"><path fill="chartreuse" fill-opacity="1" d="M0,192L30,170.7C60,149,120,107,180,80C240,53,300,43,360,64C420,85,480,139,540,186.7C600,235,660,277,720,293.3C780,309,840,299,900,277.3C960,256,1020,224,1080,192C1140,160,1200,128,1260,117.3C1320,107,1380,117,1410,122.7L1440,128L1440,0L1410,0C1380,0,1320,0,1260,0C1200,0,1140,0,1080,0C1020,0,960,0,900,0C840,0,780,0,720,0C660,0,600,0,540,0C480,0,420,0,360,0C300,0,240,0,180,0C120,0,60,0,30,0L0,0Z"></path></svg>