<?xml version="1.0" standalone="no"?><svg xmlns="http://www.w3.org/2000/svg" viewBox="0 0 1440 320"><path fill="chartreuse" fill-opacity="1" d="M0,192L30,170.7C60,149,120,107,180,80C240,53,300,43,360,64C420,85,480,139,540,186.7C600,235,660,277,720,293.3C780,309,840,299,900,277.3C960,256,1020,224,1080,192C1140,160,1200,128,1260,117.3C1320,107,1380,117,1410,122.7L1440,128L1440,320L1410,320C1380,320,1320,320,1260,320C1200,320,1140,320,1080,320C1020,320,960,320,900,320C840,320,780,320,720,320C660,320,600,320,540,320C480,320,420,320,360,320C300,320,240,320,180,320C120,320,60,320,30,320L0,320Z"></path></svg>